<?xml version="1.0" encoding="UTF-8" standalone="no"?>
<!DOCTYPE svg PUBLIC "-//W3C//DTD SVG 1.1//EN"
 "http://www.w3.org/Graphics/SVG/1.1/DTD/svg11.dtd">
<!-- Generated by graphviz version 2.46.1 (0)
 -->
<!-- Title: G Pages: 1 -->
<svg width="176pt" height="188pt"
 viewBox="0.00 0.00 176.39 188.00" xmlns="http://www.w3.org/2000/svg" xmlns:xlink="http://www.w3.org/1999/xlink">
<g id="graph0" class="graph" transform="scale(1 1) rotate(0) translate(4 184)">
<title>G</title>
<polygon fill="white" stroke="transparent" points="-4,4 -4,-184 172.39,-184 172.39,4 -4,4"/>
<!-- Welcome -->
<g id="node1" class="node">
<title>Welcome</title>
<ellipse fill="none" stroke="black" cx="73.3" cy="-162" rx="44.69" ry="18"/>
<text text-anchor="middle" x="73.3" y="-158.3" font-family="Times,serif" font-size="14.00">Welcome</text>
</g>
<!-- To -->
<g id="node2" class="node">
<title>To</title>
<ellipse fill="none" stroke="black" cx="73.3" cy="-90" rx="27" ry="18"/>
<text text-anchor="middle" x="73.3" y="-86.3" font-family="Times,serif" font-size="14.00">To</text>
</g>
<!-- Welcome&#45;&gt;To -->
<g id="edge1" class="edge">
<title>Welcome&#45;&gt;To</title>
<path fill="none" stroke="black" d="M73.3,-143.7C73.3,-135.98 73.3,-126.71 73.3,-118.11"/>
<polygon fill="black" stroke="black" points="76.8,-118.1 73.3,-108.1 69.8,-118.1 76.8,-118.1"/>
</g>
<!-- Web -->
<g id="node3" class="node">
<title>Web</title>
<ellipse fill="none" stroke="black" cx="27.3" cy="-18" rx="27.1" ry="18"/>
<text text-anchor="middle" x="27.3" y="-14.3" font-family="Times,serif" font-size="14.00">Web</text>
</g>
<!-- To&#45;&gt;Web -->
<g id="edge2" class="edge">
<title>To&#45;&gt;Web</title>
<path fill="none" stroke="black" d="M62.86,-73.12C57.1,-64.34 49.81,-53.26 43.34,-43.42"/>
<polygon fill="black" stroke="black" points="46.11,-41.26 37.69,-34.82 40.26,-45.1 46.11,-41.26"/>
</g>
<!-- GraphViz! -->
<g id="node4" class="node">
<title>GraphViz!</title>
<ellipse fill="none" stroke="black" cx="120.3" cy="-18" rx="48.19" ry="18"/>
<text text-anchor="middle" x="120.3" y="-14.3" font-family="Times,serif" font-size="14.00">GraphViz!</text>
</g>
<!-- To&#45;&gt;GraphViz! -->
<g id="edge3" class="edge">
<title>To&#45;&gt;GraphViz!</title>
<path fill="none" stroke="black" d="M83.96,-73.12C89.69,-64.59 96.87,-53.89 103.34,-44.25"/>
<polygon fill="black" stroke="black" points="106.35,-46.05 109.02,-35.8 100.54,-42.15 106.35,-46.05"/>
</g>
</g>
</svg>
